<svg viewBox="0 0 96 96" xmlns="http://www.w3.org/2000/svg" xml:space="preserve" style="fill-rule:evenodd;clip-rule:evenodd;stroke-linejoin:round;stroke-miterlimit:2">
  <ellipse cx="9.405" cy="86.715" rx="9.405" ry="9.285" style="fill:#8758e2"/>
  <path d="M0 9.285C0 4.161 4.214 0 9.405 0a9.44 9.44 0 0 1 6.648 2.721l.001-.002 29.42 29.047-.005.006A9.185 9.185 0 0 1 48 38.106c0 5.125-4.214 9.285-9.405 9.285a9.44 9.44 0 0 1-6.415-2.498l-.005.005-13.366-13.197v13.197c0 5.124-4.214 9.285-9.404 9.285C4.214 54.183 0 50.022 0 44.898V9.285Z" style="fill:#2d78c8"/>
  <ellipse cx="86.595" cy="9.285" rx="9.405" ry="9.285" style="fill:#2d78c8"/>
  <path d="M77.191 51.102c0-5.125 4.214-9.285 9.404-9.285 5.191 0 9.405 4.16 9.405 9.285v35.613C96 91.839 91.786 96 86.595 96a9.44 9.44 0 0 1-6.648-2.721l-.001.001-29.42-29.047.005-.005A9.186 9.186 0 0 1 48 57.894c0-5.125 4.214-9.285 9.404-9.285a9.44 9.44 0 0 1 6.416 2.498l.005-.005 13.366 13.196V51.102Z" style="fill:#8758e2"/>
</svg>
